<?xml version="1.0" encoding="UTF-8" standalone="no"?>
<!-- Created with Inkscape (http://www.inkscape.org/) -->

<svg
   version="1.1"
   id="svg3593"
   width="880"
   height="880"
   viewBox="0 0 880 880"
   sodipodi:docname="large-green-tree-publicdomainvectors.org.svg"
   inkscape:version="1.2 (dc2aedaf03, 2022-05-15)"
   xmlns:inkscape="http://www.inkscape.org/namespaces/inkscape"
   xmlns:sodipodi="http://sodipodi.sourceforge.net/DTD/sodipodi-0.dtd"
   xmlns="http://www.w3.org/2000/svg"
   xmlns:svg="http://www.w3.org/2000/svg">
  <defs
     id="defs3597">
    <clipPath
       clipPathUnits="userSpaceOnUse"
       id="clipPath3609">
      <path
         d="M 0,660 H 660 V 0 H 0 Z"
         id="path3607" />
    </clipPath>
  </defs>
  <sodipodi:namedview
     id="namedview3595"
     pagecolor="#ffffff"
     bordercolor="#000000"
     borderopacity="0.25"
     inkscape:showpageshadow="2"
     inkscape:pageopacity="0.0"
     inkscape:pagecheckerboard="0"
     inkscape:deskcolor="#d1d1d1"
     showgrid="false"
     inkscape:zoom="0.95113636"
     inkscape:cx="402.15054"
     inkscape:cy="440.52569"
     inkscape:window-width="1920"
     inkscape:window-height="1017"
     inkscape:window-x="-8"
     inkscape:window-y="-8"
     inkscape:window-maximized="1"
     inkscape:current-layer="g3601">
    <inkscape:page
       x="0"
       y="0"
       id="page3599"
       width="880"
       height="880" />
  </sodipodi:namedview>
  <g
     id="g3601"
     inkscape:groupmode="layer"
     inkscape:label="Page 1"
     transform="matrix(1.3333333,0,0,-1.3333333,0,880)">
    <g
       id="g3603">
      <g
         id="g3605"
         clip-path="url(#clipPath3609)">
        <g
           id="g3611"
           transform="translate(366.8906,488.9585)">
          <path
             d="m 0,0 c 110.746,0 200.52,-89.776 200.52,-200.521 0,-28.691 -6.037,-55.967 -16.895,-80.648 h -367.251 c -10.855,24.681 -16.894,51.957 -16.894,80.648 C -200.52,-89.776 -110.744,0 0,0"
             style="fill:#d6f1f7;fill-opacity:1;fill-rule:evenodd;stroke:none"
             id="path3613" />
        </g>
        <g
           id="g3615"
           transform="translate(192.7109,456.6299)">
          <path
             d="m 0,0 c 8.969,0 17.093,-4.956 23.006,-12.977 7.335,10.437 17.625,16.931 29.021,16.931 4.213,0 8.275,-0.889 12.095,-2.535 6.386,9.543 15.554,15.528 25.739,15.528 9.864,0 18.774,-5.611 25.128,-14.633 7.134,19.723 21.95,33.278 39.077,33.278 15.771,0 29.586,-11.496 37.246,-28.715 6.83,9.839 16.469,15.974 27.15,15.974 20.708,0 37.497,-23.052 37.497,-51.486 0,-2.231 -0.103,-4.43 -0.304,-6.587 2.157,-1.278 4.083,-3.156 5.663,-5.477 3.347,3.834 7.652,6.147 12.354,6.147 9.764,0 17.831,-9.972 19.102,-22.9 0.51,0.07 1.024,0.107 1.543,0.107 8.37,0 15.15,-9.312 15.15,-20.802 0,-21.694 -26.248,-31.903 -29.208,-7.766 -3.518,-18.061 -21.032,-14.441 -22.356,9.642 -4.275,-21.241 -21.428,-19.262 -20.702,3.035 -3.397,-21.051 -28.863,-23.593 -33.591,-2.687 -0.418,-27.638 -27.443,-39.125 -30.25,-2.068 -7.081,-49.56 -66.82,-53.994 -54.956,19.242 -6.329,-12.274 -16.753,-20.287 -28.543,-20.287 -0.948,0 -1.886,0.054 -2.815,0.153 -40.182,-50.792 -85.999,-57.606 -68.594,-3.199 -34.705,-34.475 -58.325,-7.043 -51.188,37.13 C -28.777,-20.442 -18.081,0 0,0"
             style="fill:#9ac421;fill-opacity:1;fill-rule:evenodd;stroke:none"
             id="path3617" />
        </g>
        <g
           id="g3619"
           transform="translate(80.6011,409.7412)">
          <path
             d="m 0,0 c -63.498,-2.848 -70.442,53.832 -3.762,55.921 -17.875,66.876 31.397,76.679 65.535,26.064 -5.744,32.245 25.956,44.526 37.545,9.058 -5.216,33.888 23.775,38.453 39.109,18.341 -12.409,32.895 24.812,36.383 40.43,21.419 -15.318,41.225 57.23,38.075 56.769,-0.051 9.896,19.103 31.783,21.374 30.793,-10.081 12.726,25.707 60.119,24.249 51.505,-12.605 14.654,21.697 34.859,8.854 35.515,-16.925 8.307,18.64 27.389,14.507 31.391,-2.258 2.441,45.23 72.558,31.585 56.417,-6.36 18.135,31.038 64.975,10.153 54.734,-26.733 54.478,37.947 72.052,-68.405 4.575,-58.512 12.923,-25.474 -12.972,-26.889 -21.525,-6.915 8.49,-50.674 -75.306,-52.651 -66.927,-3.274 -38.928,-55.211 -67.339,0.778 -45.177,36.788 C 354.17,6.983 339.466,16.981 340.532,35.873 331.912,-1.937 276.822,-8.849 275.873,33.618 257.89,4.043 227.755,16.418 228.028,46.8 217.691,15.042 197.572,15.154 183.559,40.095 176.141,-5.369 143.729,-7.397 125.59,33.13 125.774,19.996 121.004,12.341 108.948,15.717 133.937,-81.704 63.062,-105.616 34.095,-20.16 7.227,-40.069 -10.279,-36.126 0,0"
             style="fill:#adda1a;fill-opacity:1;fill-rule:evenodd;stroke:none"
             id="path3621" />
        </g>
        <g
           id="g3623"
           transform="translate(242.7925,192.082)">
          <path
             d="m 0,0 c -16.483,0.354 -29.307,2.818 -44.748,8.639 -16.596,6.259 -59.918,-1.551 -70.608,10.679 -9.065,10.369 27.706,23.411 34.424,26.778 14.857,7.447 22.241,17.191 33.735,28.652 25.978,25.904 40.376,55.576 27.054,91.81 -13.844,26.026 -28.766,31.619 -57.262,32.945 -15.96,0.606 -33.778,-2.822 -50.424,-2.925 -13.199,0.097 -26.435,1.485 -36.246,11.121 -8.315,9.065 -2.587,24.268 0.123,35.067 2.198,8.762 1.077,-6.838 1.083,-8.962 0.042,-13.994 1.262,-17.937 16.968,-20.531 26.546,-3.975 34.617,-3.313 59.73,4.565 53.69,15.294 55.366,-26.495 101.974,-14.989 16.647,4.512 28.718,14.662 43.789,22.404 8.775,4.642 15.303,8.367 23.328,14.183 28.491,18.747 27.96,11.551 58.573,10.769 25.89,-0.659 20.799,25.455 27.271,30.947 4.42,-2.068 6.123,-32.657 -12.356,-37.617 -15.275,-4.105 -29.342,3.364 -47.73,-5.388 l -2.336,-1.278 c -7.423,-5.2 -16.743,-19.207 -18.404,-28.241 -1.018,-13.18 20.518,-5.588 27.674,-3.895 17.457,4.222 21.758,5.465 40.244,5.932 25.56,0.642 44.318,-1.705 68.058,-11.497 19.283,-7.953 30.213,-10.117 51.309,-9.871 33.728,3.748 35.665,21.067 50.042,47.154 7.669,13.587 4.765,-0.101 2.298,-6.271 -10.616,-26.706 -16.853,-38.85 -45.265,-48.74 -16.887,-5.88 -35.142,-6.389 -52.288,-1.454 l -2.461,0.707 c -24.184,8.234 -30.25,14.257 -57.899,14.793 -24.558,0.474 -34.014,-10.03 -55.459,-17.242 C 97.371,173.026 91.491,171.771 76.1,162.937 58.129,151.894 57.885,142.421 55.071,122.957 52.205,103.08 42.035,54.414 57.974,39.053 64.133,33.117 79.628,29.26 78.92,22.602 78.168,15.473 55.43,11.793 48.765,9.553 30.14,3.295 21.707,0.418 1.642,0.016 Z"
             style="fill:#a33b1f;fill-opacity:1;fill-rule:evenodd;stroke:none"
             id="path3625" />
        </g>
        <g
           id="g3627"
           transform="translate(242.7925,192.082)">
          <path
             d="m 0,0 c -16.483,0.354 -29.307,2.818 -44.748,8.639 -7.665,2.89 -21.035,2.781 -34.256,3.031 13.701,4.57 34.971,4.264 50.246,10.344 17.263,6.867 37.451,25.597 41.607,44.343 6.774,30.561 15.175,57.237 36.186,81.321 28.41,31.659 51.478,41.191 90.233,41.421 -7.587,-3.359 -15.01,-7.469 -25.077,-10.855 C 97.371,173.026 91.491,171.771 76.1,162.937 58.129,151.894 57.885,142.421 55.071,122.957 52.205,103.08 42.035,54.414 57.974,39.053 64.133,33.117 79.628,29.26 78.92,22.602 78.168,15.473 55.43,11.793 48.765,9.553 30.14,3.295 21.707,0.418 1.642,0.016 Z"
             style="fill:#892f1b;fill-opacity:1;fill-rule:evenodd;stroke:none"
             id="path3629" />
        </g>
        <g
           id="g3631"
           transform="translate(305.5947,227.6582)">
          <path
             d="m 0,0 c -0.997,-6.422 -0.917,-13.303 -2.738,-19.885 -0.332,-1.209 -0.723,-2.361 -1.162,-3.467 2.045,0.528 4.187,1.106 6.276,1.747 1.618,5.435 2.749,11.505 3.9,18.183 C 4.173,-2.299 1.987,-1.176 0,0 m 229.349,157.622 c 3.044,1.213 5.674,2.657 8.002,4.313 2.151,-0.343 4.449,-0.617 7.227,-0.885 0.495,-0.048 0.954,-0.114 1.374,-0.201 -1.845,-1.829 -3.876,-3.53 -6.142,-5.129 -2.148,0.262 -4.056,0.554 -5.942,0.912 h -0.011 c -1.486,0.285 -2.955,0.609 -4.508,0.99 m -129.273,71.451 c 0.731,2.1 1.279,4.236 1.783,6.261 2.361,0.641 4.649,1.454 6.84,2.501 0.177,-1.839 0.223,-3.891 0.093,-6.045 -2.893,-1.219 -5.802,-2.096 -8.716,-2.717 M -1.535,190.567 c 0.192,-6.358 1.331,-12.286 4.559,-15.6 1.176,-0.849 2.513,-1.24 4.035,-1.058 -0.943,-1.639 -1.506,-3.306 -1.723,-4.956 -0.263,-1.988 -0.029,-3.919 0.635,-5.722 0.648,-1.757 1.704,-3.391 3.105,-4.838 2.896,-2.99 7.321,-5.168 12.62,-5.867 l 0.068,-0.013 2.962,-0.206 c 29.264,-2.042 29.461,23.155 56.299,15.837 15.284,-4.163 17.28,-3.137 32.305,0.276 40.055,8.85 42.697,-16.965 76.092,-13.418 -9.012,1.392 -17.298,4.05 -28.311,8.59 -13.476,5.559 -25.352,8.721 -37.777,10.293 -15.535,-0.878 -19.465,-7.145 -41.665,0.362 l -0.807,0.268 c -9.486,-0.759 -15.209,-2.251 -28.052,-5.358 l -0.561,-0.134 c -2.44,-1.998 -5.184,-4.211 -8.645,-6.439 -7.585,-4.891 -23.012,-7.022 -30.36,-0.136 -0.822,0.85 -1.438,1.793 -1.806,2.786 -0.348,0.949 -0.474,1.952 -0.34,2.966 0.287,1.562 0.737,2.575 1.694,3.861 7.02,9.436 12.77,7.57 23.234,24.496 14.559,23.552 25.96,17.192 42.757,10.115 4.941,-0.164 9.817,-0.059 14.822,1.287 0.438,0.117 0.861,0.251 1.277,0.396 -6.476,0.707 -13.345,3.921 -20.685,6.442 -10.847,0.534 -17.354,1.804 -23.18,1.835 -14.214,-4.832 -18.964,-22.454 -31.236,-31.12 4.578,7.514 9.13,18.845 14.511,26.781 -2.424,-1.212 -5.119,-2.73 -8.199,-4.624 -6.215,-11.563 -15.552,-29.313 -19.675,-27.984 -1.955,1.409 -2.33,7.409 -2.11,14.075 -1.868,-1.05 -3.796,-2.103 -5.843,-3.193 M -79.944,87.295 c 7.56,4.305 15.85,6.504 20.801,13.029 4.617,7.148 -1.722,45.269 -5.402,52.982 -4.863,8.261 -25.753,15.475 -34.715,19.097 -9.293,3.754 -16.751,9.709 -26.274,10.344 -1.374,-0.033 -3.009,-0.073 -5.181,0.136 -14.348,1.388 -23.832,-2.402 -32.564,-5.899 -7.448,-2.974 -14.305,-5.711 -23.157,-4.219 -6.63,1.117 -15.672,2.88 -25.24,5.476 -2.637,0.538 -4.778,1.144 -6.516,1.883 -4.378,1.342 -8.776,2.864 -13.016,4.581 0.007,-2.301 0.28,-4.527 0.929,-6.612 15.457,-5.837 32.225,-9.271 42.886,-11.068 10.435,-1.758 18.021,1.272 26.262,4.565 h 0.013 c 8.106,3.241 16.912,6.755 29.853,5.508 5.913,-0.51 7.566,0.846 13.409,-1.857 13.789,-6.373 27.716,-9.819 41.164,-16.613 11.883,-6.005 12.068,-18.73 13.421,-31.026 1.8,-16.682 3.893,-23.677 -11.171,-32.495 -1.495,-0.884 -2.968,-1.763 -4.434,-2.685 -0.292,-1.725 -0.65,-3.434 -1.068,-5.127 M -160.06,-22.932 c -2.065,0.241 -4.045,0.541 -5.896,0.924 4.524,5.061 9.628,9.535 14.903,11.791 20.52,8.754 30.272,8.141 45.123,26.885 8.862,11.193 7.177,22.406 6.136,33.639 1.279,1.541 2.507,3.091 3.69,4.658 1.008,-14.621 6.938,-28.715 -7.982,-45.555 -12.935,-14.592 -22.712,-15.97 -39.482,-23.199 -9.593,-4.135 -13.1,-5.553 -16.492,-9.143 m 47.599,-2.668 c 5.409,10.817 11.123,17.844 17.483,28.176 11.744,19.065 8.655,30.43 15.425,48.082 7.705,20.092 37.102,16.746 45.552,44.856 7.608,30.552 -14.718,27.956 -7.351,54.933 3.23,10.923 5.937,16.759 7.263,21.689 -1.493,-0.713 -3.009,-1.388 -4.56,-2.02 -1.02,-3.965 -2.756,-8.15 -5.06,-13.157 -6.027,-13.921 -6.652,-20.657 0.505,-34.196 13.506,-25.534 -1.282,-37.933 -23.067,-48.64 -22.048,-11.512 -20.167,-16.676 -22.621,-39.994 -3.027,-28.734 -19.256,-35.16 -30.25,-58.82 2.398,-0.217 4.64,-0.512 6.681,-0.909 m 31.576,-8.513 c -1.296,0.199 -2.585,0.412 -3.865,0.65 -2.481,4.477 0.771,19.61 1.331,23.781 2.631,19.623 7.233,22.895 14.491,40.147 3.428,8.152 3.806,8.91 3.841,18.06 0.027,6.784 7.71,9.971 12.832,12.704 17.453,7.849 20.435,21.265 25.074,38.271 3.103,11.294 1.039,18.747 -0.562,30.151 -2.674,20.668 8.666,32.979 11.848,52.79 1.734,1.05 3.476,2.098 5.246,3.133 -0.434,-3.111 -1.176,-8.145 -2.765,-13.037 -6.927,-21.302 -11.629,-23.74 -7.981,-47.82 2.01,-13.279 1.104,-20.457 -2.265,-33.281 C -29.12,71.033 -30.87,64.502 -49.426,52.883 -61.168,44.738 -57.469,41.494 -63.79,29.563 -75.213,8 -77.699,9.193 -76.968,-15.941 c 0.179,-6.244 2.028,-1.461 4.838,2.728 10.892,16.246 10.196,30.037 17.255,41.633 2.518,4.135 4.947,6.207 8.798,8.824 10.356,6.34 11.724,6.358 14.793,19.549 l 1.061,4.57 c 3.177,15.248 5.169,20.332 11.223,34.205 2.72,6.23 4.167,10.913 5.717,17.544 5.286,27.568 7.45,34.721 4.646,63.115 -0.473,4.786 -0.774,7.986 -0.994,9.936 1.733,0.999 3.496,1.982 5.299,2.93 2.172,-18.961 5.033,-38.999 0.377,-56.23 l -0.723,-2.673 c 16.988,24.303 30.842,6.37 57.282,19.893 20.143,10.303 14.567,9.306 37.709,10.201 28.25,1.091 30.885,10.497 61.736,-2.483 1.667,-0.699 3.319,-1.442 4.97,-2.178 13.836,-6.307 31.358,-13.906 46.912,-13.609 -9.733,-1.468 -19.655,-1.267 -29.344,0.619 -21.206,9.263 -33.918,22.462 -63.527,17.145 -1.348,0.058 -2.749,0.105 -4.212,0.132 -9.593,0.184 -16.886,-1.308 -23.484,-3.622 -0.538,-0.012 -1.088,-0.022 -1.653,-0.027 -19.697,-0.237 -23.341,-10.335 -41.15,-15.347 l -2.258,-0.636 c -23.012,-5.682 -33.98,6.221 -44.61,-24.814 -0.626,-1.943 -1.156,-3.928 -1.687,-5.897 -3.512,-13.559 -6.839,-27.512 -10.975,-40.821 -5.664,-21.357 3.286,-30.496 -1.774,-47.025 -5.133,-16.76 -3.068,-12.139 -0.351,-28.158 1.225,-7.225 1.099,-14.832 -0.45,-22.092 -1.698,-0.559 -3.322,-1.078 -4.89,-1.565 0.076,0.241 0.143,0.465 0.199,0.68 5.406,21.326 -7.083,38.619 -1.524,49.623 4.795,9.494 4.498,10.705 2.835,21.559 -3.285,18.627 2.472,22.982 -4.802,5.384 -10.235,-20.025 -17.761,-6.375 -25.687,-39.111 -3.599,-14.859 -11.006,-28.316 -21.852,-39.223 -1.421,-1.427 -2.615,-2.377 -3.62,-2.931"
             style="fill:#7e2b1a;fill-opacity:1;fill-rule:evenodd;stroke:none"
             id="path3633" />
        </g>
        <g
           id="g3635"
           transform="translate(305.5947,227.6582)">
          <path
             d="m 0,0 c -0.997,-6.422 -0.917,-13.303 -2.738,-19.885 -0.332,-1.209 -0.723,-2.361 -1.162,-3.467 2.045,0.528 4.187,1.106 6.276,1.747 1.618,5.435 2.749,11.505 3.9,18.183 C 4.173,-2.299 1.987,-1.176 0,0 m -108.239,-17.914 c -2.679,-0.465 -5.387,-0.871 -8.085,-1.254 -0.97,-1.738 -1.913,-3.57 -2.818,-5.523 2.398,-0.217 4.64,-0.512 6.681,-0.909 1.385,2.77 2.791,5.293 4.222,7.686 M 26.698,144.243 c 7.364,0.086 15.696,0.616 25.906,5.84 1.695,0.863 3.201,1.648 4.56,2.363 2.873,0.332 5.829,0.583 8.887,0.761 -8.13,-3.44 -13.711,-8.98 -25.49,-12.293 l -2.258,-0.636 c -9.384,-2.319 -16.765,-1.709 -22.937,-2.282 3.72,2.4 7.48,4.47 11.332,6.247 M -37.789,72.422 c -2.015,-5.01 -3.791,-10.127 -5.401,-15.365 12.816,9.304 14.756,16.541 19.53,34.379 1.133,4.308 1.985,7.974 2.544,11.455 -3.461,-4.758 -6.509,-9.618 -9.217,-14.584 -1.849,-5.951 -4.016,-11.289 -7.456,-15.885 M -80.885,-34.113 c -1.296,0.199 -2.585,0.412 -3.865,0.65 -2.481,4.477 0.771,19.61 1.331,23.781 l 0.017,0.119 c 2.131,1.233 4.261,2.614 6.362,4.12 -0.081,-2.934 -0.048,-6.358 0.072,-10.498 0.179,-6.244 2.028,-1.461 4.838,2.728 5.024,7.49 7.579,14.455 9.569,20.928 6.14,7.072 10.834,15.066 12.607,23.066 0.324,1.467 0.651,2.922 0.986,4.369 0.876,0.694 1.83,1.373 2.891,2.094 10.356,6.34 11.724,6.358 14.793,19.549 l 1.061,4.57 c 3.177,15.248 5.169,20.332 11.223,34.205 2.631,6.026 4.073,10.605 5.564,16.901 3.412,3.785 6.746,7.249 10.039,10.418 -0.978,-2.155 -1.946,-4.608 -2.91,-7.423 -0.626,-1.943 -1.156,-3.928 -1.687,-5.897 -3.512,-13.559 -6.839,-27.512 -10.975,-40.821 -5.664,-21.357 3.286,-30.496 -1.774,-47.025 -5.133,-16.76 -3.068,-12.139 -0.351,-28.158 1.225,-7.225 1.099,-14.832 -0.45,-22.092 -1.698,-0.559 -3.322,-1.078 -4.89,-1.565 0.076,0.241 0.143,0.465 0.199,0.68 5.406,21.326 -7.083,38.619 -1.524,49.623 4.795,9.494 4.498,10.705 2.835,21.559 -3.285,18.627 2.472,22.982 -4.802,5.384 -10.235,-20.025 -17.761,-6.375 -25.687,-39.111 -3.599,-14.859 -11.006,-28.316 -21.852,-39.223 -1.421,-1.427 -2.615,-2.377 -3.62,-2.931"
             style="fill:#692616;fill-opacity:1;fill-rule:evenodd;stroke:none"
             id="path3637" />
        </g>
        <g
           id="g3639"
           transform="translate(117.1494,219.5078)">
          <path
             d="M 0,0 519.287,2.92 C 506.037,-43.453 434.136,-80.307 371.858,-72.988 337.979,-69.006 278.183,-49.033 229.97,-51.051 196.509,-52.449 21.533,-66.189 0,0"
             style="fill:#9ac421;fill-opacity:1;fill-rule:evenodd;stroke:none"
             id="path3641" />
        </g>
        <g
           id="g3643"
           transform="translate(117.1494,220.3379)">
          <path
             d="M 0,0 519.287,2.09 C 506.037,-31.148 434.136,-57.568 371.858,-52.322 337.979,-49.467 278.183,-35.15 229.97,-36.598 196.509,-37.6 21.533,-47.447 0,0"
             style="fill:#87b027;fill-opacity:1;fill-rule:evenodd;stroke:none"
             id="path3645" />
        </g>
        <g
           id="g3647"
           transform="translate(117.1494,221.3223)">
          <path
             d="m 0,0 519.287,1.105 c -13.25,-17.566 -85.151,-31.529 -147.429,-28.757 -33.879,1.509 -93.675,9.074 -141.888,8.31 C 196.509,-19.869 21.533,-25.076 0,0"
             style="fill:#769a2a;fill-opacity:1;fill-rule:evenodd;stroke:none"
             id="path3649" />
        </g>
        <g
           id="g3651"
           transform="translate(389.0928,497.3569)">
          <path
             d="m 0,0 c -20.603,18.418 -37.287,-27.001 -8.904,-25.447 -3.167,-28.571 8.548,-41.356 30.038,-19.757 24.525,-34.884 62.044,29.835 19.426,33.601 C 38.456,19.184 17.689,25.883 0,0 m 175.865,-46.947 c -13.03,26.355 -53.131,6.316 -39.75,-19.922 -33.186,-29.786 2.846,-63.339 36.345,-29.323 14.777,-41.509 67.26,-22.352 35.359,17.103 25.38,30.802 -2.537,51.541 -31.954,32.142 m -394.083,11.88 c -3.78,0 -6.839,-3.061 -6.839,-6.839 0,-3.777 3.059,-6.842 6.839,-6.842 3.777,0 6.84,3.065 6.84,6.842 0,3.778 -3.063,6.839 -6.84,6.839 m 46.654,46.498 c 11.587,0 20.983,-9.395 20.983,-20.987 0,-11.589 -9.396,-20.983 -20.983,-20.983 -11.593,0 -20.987,9.394 -20.987,20.983 0,11.592 9.394,20.987 20.987,20.987 m 60.484,-7.408 c 6.592,0 11.934,-5.343 11.934,-11.934 0,-6.59 -5.342,-11.932 -11.934,-11.932 -6.588,0 -11.932,5.342 -11.932,11.932 0,6.591 5.344,11.934 11.932,11.934 m 221.583,-39.09 c 6.249,0 11.315,-5.065 11.315,-11.315 0,-6.251 -5.066,-11.316 -11.315,-11.316 -6.248,0 -11.313,5.065 -11.313,11.316 0,6.25 5.065,11.315 11.313,11.315 m -160.272,47.32 c 10.226,0 18.517,-8.291 18.517,-18.516 0,-10.226 -8.291,-18.517 -18.517,-18.517 -10.225,0 -18.515,8.291 -18.515,18.517 0,10.225 8.29,18.516 18.515,18.516 M -281.432,-74 c -28.388,-55.972 -94.132,2.305 -29.532,24.602 -16.154,55.415 47.733,69.579 47.985,8.513 47.378,-15.937 23.761,-62.263 -18.453,-33.115"
             style="fill:#c6e446;fill-opacity:1;fill-rule:evenodd;stroke:none"
             id="path3653" />
        </g>
        <path
           d="m 396.52,266.838 h 92.173 v 12.754 H 396.52 Z"
           style="fill:#7e2b1a;fill-opacity:1;fill-rule:evenodd;stroke:none"
           id="path3655" />
        <g
           id="g3657"
           transform="translate(408.248,407.769)">
          <path
             d="m 0,0 v 0 c 1.358,0 2.47,-1.109 2.47,-2.467 v -127.15 c 0,-1.357 -1.112,-2.467 -2.47,-2.467 -1.359,0 -2.471,1.11 -2.471,2.467 V -2.467 C -2.471,-1.109 -1.359,0 0,0"
             style="fill:#7e2b1a;fill-opacity:1;fill-rule:evenodd;stroke:none"
             id="path3659" />
        </g>
        <g
           id="g3661"
           transform="translate(476.7598,393.3701)">
          <path
             d="m 0,0 v 0 c 1.359,0 2.469,-1.111 2.469,-2.47 v -112.748 c 0,-1.357 -1.11,-2.467 -2.469,-2.467 -1.36,0 -2.47,1.11 -2.47,2.467 V -2.47 C -2.47,-1.111 -1.36,0 0,0"
             style="fill:#7e2b1a;fill-opacity:1;fill-rule:evenodd;stroke:none"
             id="path3663" />
        </g>
      </g>
    </g>
  </g>
</svg>
